<?xml version="1.0" encoding="UTF-8"?>
<svg id="Capa_1" xmlns="http://www.w3.org/2000/svg" version="1.1" viewBox="0 0 1600.09 288">
  <!-- Generator: Adobe Illustrator 30.2.1, SVG Export Plug-In . SVG Version: 2.1.1 Build 1)  -->
  <defs>
    <style>
      .st0 {
        fill: #e41b2f;
      }

      .st1 {
        fill: #202a45;
      }
    </style>
  </defs>
  <path class="st0" d="M397.74,278.35c-1.97-3.54-3.27-7-4.1-11.04l-27.16-87.49c-.76-2.43-2.4-3.96-4.95-3.87-6.75.24-13.03-.31-19.81.29l-15.56,102.01-73.04.02,19.64-112.11L301.34,4.59l117.81.12c12.99.01,24.92,2.26,36.67,7.03,30.01,13.11,35.1,40.59,28.48,70.28-5.93,35.61-10.25,65.86-44.83,85.36l34.51,110.86-76.26.11h.02,0ZM411.61,107.86c2.81-9.68,2.47-19.37-.28-28.5-2.91-9.35-10.93-15.4-20.79-15.43l-31.24-.11-9.89,66.05c23.45-1.04,53.5,6.38,62.2-22.01h0Z"/>
  <polygon class="st0" points="215.63 278.15 146.77 278.31 164.08 179.47 90.21 179.36 73.05 278.26 4.18 278.21 52.41 4.6 120.88 4.49 100.48 119.88 174.44 120.07 194.8 4.47 263.4 4.68 215.63 278.15"/>
  <path class="st1" d="M648.05,175.48c1.34-11.13,3.15-25.64-10.9-29.16-13.47-3.38-27.08.87-36.68,11.46l-21.31,120.48-64.69-.04,32.15-182.87,59.68-.11-2.24,19.62c4.8-2.45,6.99-6.57,10.53-9.28,14.38-11.03,30.85-16.3,48.93-15.61,23.77.9,46.37,6.37,53.23,31.78,10.14-10.25,4.11-7.09,13.02-14.26,10.55-8.48,22.2-14.84,36-16.74,18.09-2.5,46.66-.71,59.41,13.83,12.77,14.56,10.21,36.02,7.79,54.24l-20.6,119.24-64.74-.24,18.16-102.52c.93-10.62,3.05-25.76-10.61-29.17-15.08-3.76-31,1.95-39.98,14.82l-20.5,117.32-64.64-.04,18.01-102.77-.02.02h0Z"/>
  <path class="st1" d="M1288.65,282.57c-14.42-1.22-37.49-8.14-47.1-19.46-18.27-21.52-8.58-53.45-4.34-78.58s5.99-41.56,21.71-62.15c23.35-30.6,75.47-35.98,111.16-30.63,25.24,3.79,49.44,16.97,53.68,44.3,1.3,8.39,1.19,16.65-.34,25.14l-9.11,50.82c-1.95,10.87-5.36,20.87-10.56,30.43-21.68,39.84-74.77,43.56-115.1,40.13h0ZM1335.94,226.12c8.25-5.4,13.31-13.86,15.2-23.05,2.38-11.57,4.15-22.3,5.9-34.11,1.2-8.07-1.45-18.65-9.23-22.82-17.19-9.21-37.33,1.45-42.28,20.11-3.51,13.24-5.11,26.18-7.24,40.05-1.24,8.08,2.19,17.61,9.55,21.52,8.61,4.57,19.8,3.73,28.09-1.69h.01Z"/>
  <path class="st1" d="M892.81,278.25c-8.03-3.66-16.01-6.27-22.06-11.96-6.38-6.01-11.25-13.54-12.83-22.02-1.84-9.87-2.04-19.54-.33-29.36l7.26-41.74c1.75-10.08,6.07-30.53,11.17-38.37,7.6-11.7,16.21-22.59,28.28-29.43,10.74-6.09,21.71-10.09,33.82-12.35,27.98-5.22,65.4-5.4,90.17,10.53,19.55,12.57,24.9,34.71,20.98,56.67l-9.38,52.45c-4.93,27.6-19.11,49.65-45.45,60.73-29.05,12.22-70.63,13.14-101.64,4.85h.01ZM962.9,225.27c8.2-5.97,12.8-14.69,14.39-24.08l5.44-32.06c1.41-8.32-1.53-19.15-9.57-23.23-17.51-8.88-37.37,2.09-42.1,20.88-3.33,13.23-5.06,26.06-7.1,39.76-1.16,7.8,2.15,17.09,9.25,21.05,9.09,5.07,21.11,3.91,29.68-2.34v.02h0Z"/>
  <path class="st1" d="M1199.58,219.01l-9.29,54.22c-12.98,7.72-27.55,11.01-42.79,10.28-24.9-1.19-49.52-5.96-64.37-27.78-8.08-11.87-8.68-33.32-6.19-47.43l3.64-20.6,22.3-127.04,69.34-28.74-10.54,63.25,57.56.23-9.55,53.52-57.58.13-8.91,50.07c-.49,7.21-.46,14.19,3.05,20.41,10.3,16.67,37.25,7.15,53.33-.53h0Z"/>
  <path class="st1" d="M1501.99,278.31l-64.66-.07,32.11-182.87,60.2-.13-3.64,22.66c11.98-12.23,21.05-22.35,37.71-26.25,11.26-2.64,22.98-2.24,34.05,1.07l-9.67,54.04c-21.94-6.1-50.98-8.46-64.81,11.42l-21.3,120.13h.01Z"/>
</svg>